<svg width="212" height="212" viewBox="0 0 212 212" fill="none" xmlns="http://www.w3.org/2000/svg">
<g clip-path="url(#clip0_2079_6942)">
<path d="M46.9701 89.6702C49.8436 84.7067 54.0122 80.6177 59.0301 77.8402C64.4551 74.9126 70.5501 73.4511 76.7129 73.6002C82.8757 73.7493 88.8929 75.5037 94.1701 78.6902C99.561 82.0859 103.686 87.1597 105.91 93.1302H93.1001C91.6154 89.9116 89.1699 87.2321 86.1001 85.4602C82.9209 83.734 79.3469 82.8655 75.7301 82.9402C71.7102 82.8667 67.7436 83.8679 64.2401 85.8402C60.854 87.7867 58.1087 90.6779 56.3401 94.1602C54.3718 98.0668 53.3931 102.397 53.4901 106.77C53.3874 111.142 54.3591 115.472 56.3201 119.38C58.0955 122.871 60.838 125.776 64.2201 127.75C67.7212 129.752 71.6978 130.771 75.7301 130.7C79.3503 130.777 82.9279 129.908 86.1101 128.18C89.1799 126.408 91.6254 123.729 93.1101 120.51H105.92C103.703 126.474 99.5752 131.537 94.1801 134.91C88.6363 138.316 82.2354 140.068 75.7301 139.96C69.8773 140.024 64.1096 138.555 59.0001 135.7C54.007 132.915 49.8606 128.831 47.0001 123.88C44.0885 118.649 42.5603 112.762 42.5603 106.775C42.5603 100.789 44.0885 94.9011 47.0001 89.6702H46.9701Z" fill="#12264B"/>
<path d="M148.15 106.961L168.34 139.381H156.34L141.73 115.841L127.96 139.381H116.09L136.28 106.941L116 74.4307H128L142.73 98.1707L156.57 74.4307H168.44L148.15 106.961Z" fill="#12264B"/>
<path d="M63.51 150.101V170.021H60.24V156.381L54.17 170.031H51.9L45.8 156.381V170.031H42.53V150.101H46.06L53.06 165.721L60.06 150.101H63.51Z" fill="#12264B"/>
<path d="M79.81 165.95H71.48L70.04 170.02H66.63L73.73 150.07H77.51L84.73 170.02H81.25L79.81 165.95ZM78.9 163.28L75.66 154.03L72.39 163.28H78.9Z" fill="#12264B"/>
<path d="M100.99 158.9C100.468 159.847 99.6691 160.611 98.7 161.09C97.455 161.693 96.0824 161.984 94.7 161.94H91.09V170.02H87.8199V150.1H94.7C96.0371 150.058 97.3657 150.328 98.5799 150.89C99.5679 151.347 100.397 152.089 100.96 153.02C101.49 153.93 101.763 154.967 101.75 156.02C101.743 157.029 101.481 158.019 100.99 158.9ZM97.4399 158.42C97.7552 158.11 98.0005 157.737 98.1592 157.325C98.3179 156.912 98.3864 156.471 98.3599 156.03C98.3599 153.85 97.12 152.76 94.66 152.76H91.0499V159.27H94.66C95.6656 159.334 96.6585 159.016 97.4399 158.38V158.42Z" fill="#12264B"/>
<path d="M118.04 158.9C117.518 159.847 116.719 160.611 115.75 161.09C114.505 161.693 113.132 161.984 111.75 161.94H108.14V170.02H104.83V150.1H111.73C113.067 150.058 114.396 150.328 115.61 150.89C116.598 151.347 117.427 152.089 117.99 153.02C118.52 153.93 118.793 154.967 118.78 156.02C118.779 157.027 118.524 158.017 118.04 158.9ZM114.49 158.42C114.805 158.11 115.051 157.737 115.209 157.325C115.368 156.912 115.436 156.471 115.41 156.03C115.41 153.85 114.177 152.76 111.71 152.76H108.1V159.27H111.73C112.729 159.329 113.714 159.011 114.49 158.38V158.42Z" fill="#12264B"/>
<path d="M125.15 152.74V158.58H132.03V161.25H125.15V167.38H132.89V170.05H121.89V150.07H132.89V152.74H125.15Z" fill="#12264B"/>
<path d="M147.25 170.02L142.66 162.02H140.17V170.02H136.9V150.1H143.78C145.118 150.061 146.447 150.335 147.66 150.9C148.645 151.371 149.472 152.118 150.04 153.05C150.566 153.962 150.839 154.998 150.83 156.05C150.837 157.32 150.442 158.56 149.7 159.59C148.841 160.714 147.599 161.483 146.21 161.75L151.14 170.01L147.25 170.02ZM140.17 159.44H143.78C144.278 159.479 144.779 159.418 145.253 159.26C145.727 159.102 146.165 158.85 146.54 158.52C146.857 158.197 147.104 157.811 147.266 157.388C147.428 156.965 147.501 156.513 147.48 156.06C147.504 155.615 147.435 155.17 147.277 154.753C147.118 154.336 146.874 153.957 146.56 153.64C145.781 152.999 144.786 152.684 143.78 152.76H140.17V159.44Z" fill="#12264B"/>
<path d="M157.96 169.511C156.95 169.092 156.077 168.4 155.44 167.511C154.824 166.633 154.502 165.583 154.52 164.511H158.02C158.07 165.319 158.428 166.078 159.02 166.631C159.724 167.226 160.63 167.527 161.55 167.471C162.5 167.526 163.438 167.235 164.19 166.651C164.506 166.398 164.761 166.077 164.934 165.711C165.107 165.345 165.195 164.945 165.19 164.541C165.212 163.941 165.001 163.357 164.6 162.911C164.198 162.468 163.698 162.125 163.14 161.911C162.348 161.615 161.54 161.364 160.72 161.161C159.637 160.894 158.578 160.543 157.55 160.111C156.729 159.749 156.013 159.184 155.47 158.471C154.857 157.595 154.554 156.538 154.61 155.471C154.59 154.407 154.89 153.362 155.47 152.471C156.065 151.587 156.902 150.893 157.88 150.471C159.011 149.99 160.231 149.755 161.46 149.781C163.16 149.706 164.833 150.218 166.2 151.231C166.814 151.706 167.316 152.311 167.67 153.002C168.024 153.694 168.222 154.454 168.25 155.231H164.64C164.614 154.866 164.512 154.511 164.339 154.189C164.167 153.867 163.929 153.584 163.64 153.361C162.925 152.821 162.044 152.549 161.15 152.591C160.326 152.554 159.515 152.809 158.86 153.311C158.559 153.559 158.321 153.875 158.166 154.233C158.012 154.591 157.944 154.981 157.97 155.371C157.959 155.647 158.003 155.922 158.099 156.182C158.195 156.441 158.341 156.678 158.53 156.881C158.927 157.289 159.408 157.606 159.94 157.811C160.708 158.103 161.493 158.35 162.29 158.551C163.391 158.838 164.47 159.203 165.52 159.641C166.36 160.007 167.091 160.586 167.64 161.321C168.255 162.196 168.561 163.252 168.51 164.321C168.509 165.334 168.229 166.327 167.7 167.191C167.122 168.117 166.298 168.865 165.32 169.351C164.174 169.918 162.908 170.199 161.63 170.171C160.374 170.212 159.123 169.987 157.96 169.511Z" fill="#12264B"/>
<path d="M163.37 60.0605H47.4V61.5605H163.37V60.0605Z" fill="#12264B"/>
<path d="M45.07 63.8802C44.4633 63.8782 43.8707 63.6965 43.3671 63.358C42.8636 63.0194 42.4717 62.5393 42.2408 61.9781C42.01 61.417 41.9506 60.8 42.0702 60.2052C42.1898 59.6103 42.483 59.0642 42.9127 58.6359C43.3425 58.2075 43.8895 57.9161 44.4848 57.7985C45.08 57.6809 45.6968 57.7422 46.2571 57.9749C46.8175 58.2075 47.2964 58.601 47.6333 59.1057C47.9702 59.6103 48.15 60.2035 48.15 60.8102C48.1474 61.6254 47.8217 62.4062 47.2444 62.9816C46.667 63.5571 45.8851 63.8802 45.07 63.8802ZM45.07 59.2402C44.7599 59.2422 44.4574 59.3359 44.2005 59.5097C43.9436 59.6834 43.744 59.9293 43.6267 60.2163C43.5094 60.5033 43.4797 60.8187 43.5414 61.1226C43.6031 61.4265 43.7534 61.7053 43.9734 61.9239C44.1933 62.1424 44.4731 62.291 44.7774 62.3507C45.0817 62.4105 45.3968 62.3788 45.6831 62.2597C45.9694 62.1406 46.214 61.9394 46.3861 61.6814C46.5582 61.4234 46.65 61.1203 46.65 60.8102C46.65 60.6032 46.6091 60.3982 46.5296 60.2071C46.45 60.0159 46.3335 59.8424 46.1866 59.6965C46.0398 59.5506 45.8655 59.4352 45.6739 59.3568C45.4823 59.2785 45.277 59.2389 45.07 59.2402Z" fill="#12264B"/>
<path d="M165.73 63.8804C165.12 63.8943 164.52 63.7262 164.006 63.3974C163.492 63.0686 163.087 62.5942 162.844 62.0346C162.601 61.475 162.53 60.8556 162.641 60.2556C162.751 59.6555 163.038 59.102 163.464 58.6656C163.891 58.2292 164.437 57.9298 165.035 57.8055C165.632 57.6813 166.253 57.7379 166.818 57.968C167.383 58.1982 167.867 58.5915 168.207 59.0978C168.548 59.604 168.73 60.2003 168.73 60.8104C168.728 61.6119 168.413 62.3809 167.853 62.9541C167.293 63.5273 166.531 63.8596 165.73 63.8804ZM165.73 59.2404C165.419 59.2404 165.116 59.3325 164.858 59.505C164.6 59.6775 164.398 59.9227 164.279 60.2096C164.161 60.4965 164.13 60.8122 164.19 61.1167C164.251 61.4213 164.4 61.701 164.62 61.9206C164.839 62.1401 165.119 62.2897 165.424 62.3503C165.728 62.4108 166.044 62.3797 166.331 62.2609C166.618 62.1421 166.863 61.9408 167.035 61.6827C167.208 61.4245 167.3 61.1209 167.3 60.8104C167.3 60.394 167.135 59.9947 166.84 59.7003C166.546 59.4058 166.146 59.2404 165.73 59.2404Z" fill="#12264B"/>
<path d="M163.37 44.1006H135.04V45.6006H163.37V44.1006Z" fill="#12264B"/>
<path d="M130.39 44.1006H99.6899V45.6006H130.39V44.1006Z" fill="#12264B"/>
<path d="M97.15 47.9203C96.5428 47.9203 95.9492 47.7402 95.4444 47.4029C94.9395 47.0656 94.546 46.5861 94.3136 46.0251C94.0813 45.4641 94.0205 44.8469 94.1389 44.2513C94.2574 43.6558 94.5498 43.1088 94.9791 42.6795C95.4085 42.2501 95.9555 41.9577 96.551 41.8393C97.1466 41.7208 97.7638 41.7816 98.3248 42.014C98.8858 42.2463 99.3652 42.6398 99.7026 43.1447C100.04 43.6495 100.22 44.2431 100.22 44.8503C100.221 45.2538 100.143 45.6536 99.989 46.0267C99.8351 46.3997 99.6091 46.7387 99.3237 47.024C99.0384 47.3094 98.6994 47.5355 98.3264 47.6893C97.9533 47.8431 97.5535 47.9216 97.15 47.9203ZM97.15 43.2803C96.8399 43.2823 96.5373 43.376 96.2805 43.5497C96.0236 43.7234 95.8239 43.9693 95.7066 44.2564C95.5893 44.5434 95.5597 44.8588 95.6214 45.1627C95.6831 45.4665 95.8334 45.7454 96.0533 45.9639C96.2733 46.1825 96.553 46.331 96.8573 46.3908C97.1616 46.4506 97.4768 46.4189 97.7631 46.2998C98.0494 46.1807 98.294 45.9794 98.466 45.7215C98.6381 45.4635 98.73 45.1604 98.73 44.8503C98.73 44.6433 98.689 44.4383 98.6095 44.2471C98.53 44.056 98.4134 43.8825 98.2666 43.7366C98.1197 43.5906 97.9455 43.4752 97.7538 43.3969C97.5622 43.3186 97.357 43.279 97.15 43.2803Z" fill="#12264B"/>
<path d="M132.73 47.9203C132.123 47.9183 131.531 47.7366 131.027 47.398C130.524 47.0595 130.132 46.5793 129.901 46.0182C129.67 45.457 129.611 44.8401 129.73 44.2452C129.85 43.6504 130.143 43.1043 130.573 42.6759C131.003 42.2476 131.55 41.9562 132.145 41.8385C132.74 41.7209 133.357 41.7823 133.917 42.0149C134.478 42.2476 134.956 42.6411 135.293 43.1457C135.63 43.6503 135.81 44.2435 135.81 44.8503C135.81 45.2543 135.73 45.6543 135.575 46.0274C135.42 46.4005 135.193 46.7394 134.907 47.0246C134.621 47.3098 134.282 47.5358 133.908 47.6894C133.534 47.8431 133.134 47.9216 132.73 47.9203ZM132.73 43.2803C132.42 43.2822 132.117 43.376 131.861 43.5497C131.604 43.7234 131.404 43.9693 131.287 44.2563C131.169 44.5434 131.14 44.8587 131.201 45.1626C131.263 45.4665 131.413 45.7453 131.633 45.9639C131.853 46.1825 132.133 46.331 132.437 46.3908C132.742 46.4506 133.057 46.4189 133.343 46.2998C133.629 46.1807 133.874 45.9794 134.046 45.7215C134.218 45.4635 134.31 45.1603 134.31 44.8503C134.31 44.6432 134.269 44.4383 134.19 44.2471C134.11 44.056 133.994 43.8825 133.847 43.7366C133.7 43.5906 133.526 43.4752 133.334 43.3969C133.142 43.3186 132.937 43.2789 132.73 43.2803Z" fill="#12264B"/>
<path d="M165.73 47.9205C165.12 47.9344 164.52 47.7662 164.006 47.4374C163.492 47.1087 163.087 46.6342 162.844 46.0746C162.601 45.515 162.53 44.8956 162.641 44.2956C162.751 43.6955 163.038 43.142 163.464 42.7056C163.891 42.2692 164.437 41.9698 165.035 41.8456C165.632 41.7213 166.253 41.7779 166.818 42.0081C167.383 42.2382 167.867 42.6315 168.207 43.1378C168.548 43.6441 168.73 44.2403 168.73 44.8505C168.73 45.6527 168.416 46.4231 167.856 46.9969C167.295 47.5707 166.532 47.9022 165.73 47.9205ZM165.73 43.2805C165.419 43.2805 165.116 43.3725 164.858 43.545C164.6 43.7176 164.398 43.9628 164.279 44.2496C164.161 44.5365 164.13 44.8522 164.19 45.1567C164.251 45.4613 164.4 45.741 164.62 45.9606C164.839 46.1802 165.119 46.3297 165.424 46.3903C165.728 46.4509 166.044 46.4198 166.331 46.3009C166.618 46.1821 166.863 45.9809 167.035 45.7227C167.208 45.4645 167.3 45.161 167.3 44.8505C167.3 44.4341 167.135 44.0347 166.84 43.7403C166.546 43.4459 166.146 43.2805 165.73 43.2805Z" fill="#12264B"/>
</g>
<defs>
<clipPath id="clip0_2079_6942">
<rect width="126.76" height="128.44" fill="white" transform="translate(42 41.7803)"/>
</clipPath>
</defs>
</svg>
